<svg xmlns="http://www.w3.org/2000/svg" version="1.1" width="1224px" height="203px"
    style="shape-rendering:geometricPrecision; text-rendering:geometricPrecision; image-rendering:optimizeQuality; fill-rule:evenodd; clip-rule:evenodd"
    xmlns:xlink="http://www.w3.org/1999/xlink">
    <g>
        <path style="opacity:0.985" fill="#000000"
            d="M 116.5,77.5 C 117.222,77.9175 117.722,78.5842 118,79.5C 118.667,71.8333 118.667,64.1667 118,56.5C 117.79,58.0581 117.29,59.3915 116.5,60.5C 116.833,55.1667 117.167,49.8333 117.5,44.5C 118.117,44.6107 118.617,44.944 119,45.5C 119.825,34.9917 119.659,24.6584 118.5,14.5C 118.5,12.8333 118.5,11.1667 118.5,9.5C 129.504,8.86349 140.504,8.19682 151.5,7.5C 153.743,8.81166 156.41,9.47832 159.5,9.5C 162.59,9.47832 165.257,8.81166 167.5,7.5C 172.074,6.66953 176.574,6.66953 181,7.5C 181.736,15.5353 181.569,23.5353 180.5,31.5C 179.195,33.3972 178.529,35.7305 178.5,38.5C 178.503,41.0254 178.837,43.3587 179.5,45.5C 178.934,56.4913 178.6,67.4913 178.5,78.5C 177.732,77.7375 177.232,76.7375 177,75.5C 176.059,77.9894 176.559,79.9894 178.5,81.5C 178.167,84.1667 177.833,86.8333 177.5,89.5C 175.715,94.0675 174.882,99.0675 175,104.5C 174.183,110.016 174.349,115.35 175.5,120.5C 175.344,129.175 175.011,137.842 174.5,146.5C 173.223,147.694 172.556,149.36 172.5,151.5C 172.556,153.64 173.223,155.306 174.5,156.5C 173.48,166.129 172.814,175.796 172.5,185.5C 170.473,185.338 168.473,185.505 166.5,186C 167.056,186.383 167.389,186.883 167.5,187.5C 145.775,189.527 124.109,191.36 102.5,193C 90.5434,162.914 78.7101,132.747 67,102.5C 65.6431,104.655 65.4764,106.822 66.5,109C 65.5023,117.464 64.8356,125.964 64.5,134.5C 62.8993,133.357 62.2326,134.024 62.5,136.5C 62.6399,138.03 63.3065,139.03 64.5,139.5C 64.3713,141.216 64.038,142.883 63.5,144.5C 62.2132,145.871 61.5465,147.705 61.5,150C 61.5056,152.033 61.8389,153.866 62.5,155.5C 62.195,168.214 61.5284,180.88 60.5,193.5C 40.8045,192.846 21.4711,193.512 2.5,195.5C 1.88258,195.389 1.38258,195.056 1,194.5C 0.441764,158.153 0.941764,121.819 2.5,85.5C 3.80856,83.4294 4.47523,80.9294 4.5,78C 4.33333,75.5 4.16667,73 4,70.5C 3.76791,71.7375 3.26791,72.7375 2.5,73.5C 3.25321,64.8544 3.58654,56.1877 3.5,47.5C 4.26791,48.2625 4.76791,49.2625 5,50.5C 5.66667,44.5 5.66667,38.5 5,32.5C 4.61742,33.056 4.11742,33.3893 3.5,33.5C 3.70532,24.58 4.37199,15.7467 5.5,7C 27.5049,5.66633 49.5049,4.66633 71.5,4C 86.2947,33.7563 100.961,63.5897 115.5,93.5C 116.495,88.2079 116.828,82.8746 116.5,77.5 Z" />
    </g>
    <g>
        <path style="opacity:0.991" fill="#000000"
            d="M 337.5,70.5 C 336.876,70.9169 336.543,71.5836 336.5,72.5C 336.747,73.7133 337.414,74.38 338.5,74.5C 338.433,75.9587 338.766,77.2921 339.5,78.5C 338.235,79.5145 337.569,81.0145 337.5,83C 337.667,84.5 337.833,86 338,87.5C 338.383,86.944 338.883,86.6107 339.5,86.5C 339.5,89.5 339.5,92.5 339.5,95.5C 338.883,95.3893 338.383,95.056 338,94.5C 337.833,95.8333 337.667,97.1667 337.5,98.5C 337.585,100.333 338.252,101.666 339.5,102.5C 338.962,104.117 338.629,105.784 338.5,107.5C 336.744,108.552 336.077,110.219 336.5,112.5C 332.818,112.335 329.152,112.501 325.5,113C 326.056,113.383 326.389,113.883 326.5,114.5C 325.041,114.433 323.708,114.766 322.5,115.5C 320.704,112.952 319.038,112.952 317.5,115.5C 294.638,117.857 271.971,121.19 249.5,125.5C 253.697,136.04 261.363,142.04 272.5,143.5C 273.334,144.748 274.667,145.415 276.5,145.5C 278.333,145.415 279.666,144.748 280.5,143.5C 290.726,141.217 300.393,137.55 309.5,132.5C 312.697,132.238 315.697,130.738 318.5,128C 318.272,127.601 317.938,127.435 317.5,127.5C 318.78,126.069 320.447,125.402 322.5,125.5C 320.424,145.169 318.257,164.835 316,184.5C 306.453,192.803 295.286,197.636 282.5,199C 231.851,204.257 200.685,182.09 189,132.5C 181.964,96.3476 188.964,63.3476 210,33.5C 233.929,6.55779 263.096,-1.27554 297.5,10C 321.337,23.0413 334.671,43.208 337.5,70.5 Z M 273.5,86.5 C 271.379,86.3253 269.379,86.6586 267.5,87.5C 261.144,88.3527 254.81,88.3527 248.5,87.5C 250.53,81.1064 253.364,75.1064 257,69.5C 264.524,61.1791 272.524,60.5124 281,67.5C 284.098,73.08 285.598,79.08 285.5,85.5C 281.466,85.5045 277.466,85.8379 273.5,86.5 Z" />
    </g>
    <g>
        <path style="opacity:0.984" fill="#000000"
            d="M 859.5,10.5 C 859.389,11.1174 859.056,11.6174 858.5,12C 863.486,12.9164 868.486,13.2497 873.5,13C 872.944,12.6174 872.611,12.1174 872.5,11.5C 876.119,12.1805 879.786,12.6805 883.5,13C 884.308,13.3076 884.975,13.8076 885.5,14.5C 874.887,74.7912 864.554,135.124 854.5,195.5C 846.16,195.334 837.827,195.5 829.5,196C 831.058,196.21 832.391,196.71 833.5,197.5C 824.812,197.413 816.146,197.747 807.5,198.5C 807.611,197.883 807.944,197.383 808.5,197C 799.5,196.333 790.5,196.333 781.5,197C 780.944,197.383 780.611,197.883 780.5,198.5C 779.504,198.586 778.671,198.252 778,197.5C 772.784,168.203 767.784,138.87 763,109.5C 757.508,136.785 752.342,164.119 747.5,191.5C 745.139,191.674 742.806,192.007 740.5,192.5C 740.918,191.778 741.584,191.278 742.5,191C 740.5,190.833 738.5,190.667 736.5,190.5C 734.048,190.539 732.048,191.206 730.5,192.5C 713.459,192.585 696.459,193.252 679.5,194.5C 676.684,192.996 673.684,191.662 670.5,190.5C 660.777,133.83 650.944,77.1631 641,20.5C 640.722,21.4158 640.222,22.0825 639.5,22.5C 639.441,19.9512 640.441,17.9512 642.5,16.5C 641.649,13.3876 640.483,13.0542 639,15.5C 638.19,19.3575 638.357,23.0242 639.5,26.5C 639.777,39.5368 639.443,52.5368 638.5,65.5C 635.813,65.3359 633.146,65.5026 630.5,66C 631.056,66.3826 631.389,66.8826 631.5,67.5C 621.139,68.0606 610.806,68.7273 600.5,69.5C 598.763,93.8011 597.43,118.134 596.5,142.5C 595.883,142.389 595.383,142.056 595,141.5C 594.333,146.833 594.333,152.167 595,157.5C 595.383,156.944 595.883,156.611 596.5,156.5C 595.797,168.315 594.797,179.982 593.5,191.5C 592.5,188.833 591.5,188.833 590.5,191.5C 573.634,192.141 556.801,193.141 540,194.5C 539.228,194.355 538.561,194.022 538,193.5C 536.562,187.846 536.062,182.18 536.5,176.5C 537.222,176.918 537.722,177.584 538,178.5C 538.167,176 538.333,173.5 538.5,171C 538.475,168.071 537.809,165.571 536.5,163.5C 535.737,142.807 534.737,122.141 533.5,101.5C 534.117,101.611 534.617,101.944 535,102.5C 535.167,100.167 535.333,97.8333 535.5,95.5C 535.471,92.7305 534.805,90.3972 533.5,88.5C 533.167,85.8333 532.833,83.1667 532.5,80.5C 533.222,80.9175 533.722,81.5842 534,82.5C 534.667,78.8333 534.667,75.1667 534,71.5C 531.599,70.3977 529.099,70.231 526.5,71C 528.382,71.1981 530.048,71.6981 531.5,72.5C 525.167,72.5 518.833,72.5 512.5,72.5C 507.35,71.3493 502.016,71.1826 496.5,72C 497.056,72.3826 497.389,72.8826 497.5,73.5C 496.167,73.5 494.833,73.5 493.5,73.5C 494.277,58.8468 494.611,44.1801 494.5,29.5C 495.993,28.6879 496.66,27.3545 496.5,25.5C 496.167,24.5 495.833,23.5 495.5,22.5C 492.476,26.0341 489.81,29.8674 487.5,34C 487.728,34.3988 488.062,34.5654 488.5,34.5C 486.582,39.3434 483.916,43.6767 480.5,47.5C 479.624,47.3691 478.957,47.7025 478.5,48.5C 475.501,54.5016 472.001,60.1683 468,65.5C 467.26,66.7494 467.427,67.7494 468.5,68.5C 462.595,78.6394 456.428,88.6394 450,98.5C 449.333,100.167 449.333,101.833 450,103.5C 465.245,127.686 479.911,152.019 494,176.5C 478.245,181.863 462.412,187.029 446.5,192C 443.558,193.124 440.558,193.458 437.5,193C 429.564,176.961 421.231,161.128 412.5,145.5C 403.412,162.008 394.579,178.675 386,195.5C 384.612,196.554 383.112,196.72 381.5,196C 363.833,189.667 346.167,183.333 328.5,177C 327.978,176.439 327.645,175.772 327.5,175C 343.417,149.834 359.084,124.501 374.5,99C 361.052,75.2693 347.218,51.7693 333,28.5C 331.991,26.9751 331.491,25.3084 331.5,23.5C 350.167,19.066 368.834,14.566 387.5,10C 389.579,9.19234 391.579,9.35901 393.5,10.5C 400.181,25.1928 406.848,39.8594 413.5,54.5C 412.438,55.5754 412.438,56.5754 413.5,57.5C 414.386,56.675 414.719,55.675 414.5,54.5C 420.941,39.6167 427.941,24.9501 435.5,10.5C 437.333,10.1667 439.167,9.83333 441,9.5C 452.502,10.8814 464.002,12.2147 475.5,13.5C 475.62,14.5862 476.287,15.2528 477.5,15.5C 478.713,15.2528 479.38,14.5862 479.5,13.5C 484.386,14.7214 489.386,15.3881 494.5,15.5C 494.286,13.8561 494.62,12.3561 495.5,11C 540.826,9.84082 586.159,9.34082 631.5,9.5C 607.003,10.3321 582.337,10.8321 557.5,11C 583.833,11.6667 610.167,11.6667 636.5,11C 635.944,10.6174 635.611,10.1174 635.5,9.5C 636.833,9.5 638.167,9.5 639.5,9.5C 639.5,10.5 639.5,11.5 639.5,12.5C 660.007,10.9842 680.507,9.31756 701,7.5C 703.033,7.50558 704.866,7.83891 706.5,8.5C 705.876,8.91695 705.543,9.58362 705.5,10.5C 705.747,11.7133 706.414,12.38 707.5,12.5C 710.957,43.5766 714.957,74.5766 719.5,105.5C 725.405,73.2688 730.905,40.9355 736,8.5C 736.5,8 737,7.5 737.5,7C 754.544,6.18123 771.544,6.3479 788.5,7.5C 795.315,41.0761 801.815,74.7428 808,108.5C 812.29,74.9306 815.79,41.264 818.5,7.5C 832.174,8.42675 845.84,9.42675 859.5,10.5 Z" />
    </g>
    <g>
        <path style="opacity:0.566" fill="#0d0d0d"
            d="M 151.5,7.5 C 156.833,7.5 162.167,7.5 167.5,7.5C 165.257,8.81166 162.59,9.47832 159.5,9.5C 156.41,9.47832 153.743,8.81166 151.5,7.5 Z" />
    </g>
    <g>
        <path style="opacity:0.641" fill="#161616"
            d="M 706.5,8.5 C 707.434,9.56764 707.768,10.901 707.5,12.5C 706.414,12.38 705.747,11.7133 705.5,10.5C 705.543,9.58362 705.876,8.91695 706.5,8.5 Z" />
    </g>
    <g>
        <path style="opacity:0.659" fill="#0c0c0c"
            d="M 631.5,9.5 C 632.833,9.5 634.167,9.5 635.5,9.5C 635.611,10.1174 635.944,10.6174 636.5,11C 610.167,11.6667 583.833,11.6667 557.5,11C 582.337,10.8321 607.003,10.3321 631.5,9.5 Z" />
    </g>
    <g>
        <path style="opacity:0.99" fill="#000000"
            d="M 957.5,10.5 C 957.389,11.1174 957.056,11.6174 956.5,12C 964.195,12.2313 971.862,12.7313 979.5,13.5C 980.713,13.2528 981.38,12.5862 981.5,11.5C 1024.07,20.0736 1047.4,46.0736 1051.5,89.5C 1050.21,90.8714 1049.55,92.7047 1049.5,95C 1049.67,96.8333 1049.83,98.6667 1050,100.5C 1050.38,101.056 1050.88,101.389 1051.5,101.5C 1046.29,147.707 1020.96,175.373 975.5,184.5C 973.085,183.186 970.252,182.519 967,182.5C 963.748,182.519 960.915,183.186 958.5,184.5C 940.63,182.058 924.963,175.058 911.5,163.5C 912.239,163.631 912.906,163.464 913.5,163C 907.29,158.458 902.124,152.958 898,146.5C 897.601,146.728 897.435,147.062 897.5,147.5C 881.744,123.362 878.244,97.3619 887,69.5C 890.476,58.533 895.976,48.8664 903.5,40.5C 907.94,37.2365 912.273,33.7365 916.5,30C 917.252,29.3292 917.586,28.4959 917.5,27.5C 929.084,18.0498 942.417,12.3832 957.5,10.5 Z M 966.5,70.5 C 977.411,70.8944 984.911,76.2278 989,86.5C 993.445,100.411 990.612,112.578 980.5,123C 978.612,124.394 976.612,125.56 974.5,126.5C 969.562,127.392 964.562,127.726 959.5,127.5C 949.659,123.545 943.826,116.211 942,105.5C 941.022,98.9874 941.522,92.6541 943.5,86.5C 945.351,80.6478 949.017,76.3145 954.5,73.5C 955.833,72.8333 957.167,72.1667 958.5,71.5C 961.096,70.7347 963.763,70.4013 966.5,70.5 Z" />
    </g>
    <g>
        <path style="opacity:0.641" fill="#151515"
            d="M 957.5,10.5 C 965.525,10.3903 973.525,10.7237 981.5,11.5C 981.38,12.5862 980.713,13.2528 979.5,13.5C 971.862,12.7313 964.195,12.2313 956.5,12C 957.056,11.6174 957.389,11.1174 957.5,10.5 Z" />
    </g>
    <g>
        <path style="opacity:0.99" fill="#000000"
            d="M 1129.5,10.5 C 1129.39,11.1174 1129.06,11.6174 1128.5,12C 1131.5,12.1667 1134.5,12.3333 1137.5,12.5C 1140.91,12.483 1143.91,11.8164 1146.5,10.5C 1185.93,14.4389 1210.76,35.4389 1221,73.5C 1221.86,80.9807 1222.69,88.314 1223.5,95.5C 1223.5,95.8333 1223.5,96.1667 1223.5,96.5C 1220.75,145.254 1195.42,174.587 1147.5,184.5C 1145.08,183.186 1142.25,182.519 1139,182.5C 1135.75,182.519 1132.92,183.186 1130.5,184.5C 1112.63,182.058 1096.96,175.058 1083.5,163.5C 1084.24,163.631 1084.91,163.464 1085.5,163C 1079.29,158.458 1074.12,152.958 1070,146.5C 1069.6,146.728 1069.43,147.062 1069.5,147.5C 1053.74,123.362 1050.24,97.3619 1059,69.5C 1062.98,58.8589 1068.48,49.1923 1075.5,40.5C 1079.94,37.2365 1084.27,33.7365 1088.5,30C 1090.14,28.871 1091.14,27.371 1091.5,25.5C 1102.82,17.3865 1115.49,12.3865 1129.5,10.5 Z M 1137.5,70.5 C 1148.93,70.4182 1156.77,75.7516 1161,86.5C 1164.53,97.7622 1163.2,108.429 1157,118.5C 1151.79,125.187 1144.96,128.187 1136.5,127.5C 1133.76,127.599 1131.1,127.265 1128.5,126.5C 1116.38,117.695 1111.55,105.695 1114,90.5C 1114.41,89.0993 1114.91,87.766 1115.5,86.5C 1117.35,80.6478 1121.02,76.3145 1126.5,73.5C 1127.83,72.8333 1129.17,72.1667 1130.5,71.5C 1132.76,70.7814 1135.1,70.448 1137.5,70.5 Z" />
    </g>
    <g>
        <path style="opacity:0.598" fill="#141414"
            d="M 1129.5,10.5 C 1135.17,10.5 1140.83,10.5 1146.5,10.5C 1143.91,11.8164 1140.91,12.483 1137.5,12.5C 1134.5,12.3333 1131.5,12.1667 1128.5,12C 1129.06,11.6174 1129.39,11.1174 1129.5,10.5 Z" />
    </g>
    <g>
        <path style="opacity:0.598" fill="#111111"
            d="M 859.5,10.5 C 863.824,10.9272 868.158,11.2605 872.5,11.5C 872.611,12.1174 872.944,12.6174 873.5,13C 868.486,13.2497 863.486,12.9164 858.5,12C 859.056,11.6174 859.389,11.1174 859.5,10.5 Z" />
    </g>
    <g>
        <path style="opacity:0.89" fill="#181818"
            d="M 475.5,13.5 C 476.833,13.5 478.167,13.5 479.5,13.5C 479.38,14.5862 478.713,15.2528 477.5,15.5C 476.287,15.2528 475.62,14.5862 475.5,13.5 Z" />
    </g>
    <g>
        <path style="opacity:0.748" fill="#131313"
            d="M 639.5,22.5 C 639.5,23.8333 639.5,25.1667 639.5,26.5C 638.357,23.0242 638.19,19.3575 639,15.5C 640.483,13.0542 641.649,13.3876 642.5,16.5C 640.441,17.9512 639.441,19.9512 639.5,22.5 Z" />
    </g>
    <g>
        <path style="opacity:0.624" fill="#0c0c0c"
            d="M 118.5,14.5 C 119.659,24.6584 119.825,34.9917 119,45.5C 118.617,44.944 118.117,44.6107 117.5,44.5C 117.271,34.4679 117.604,24.4679 118.5,14.5 Z" />
    </g>
    <g>
        <path style="opacity:0.689" fill="#0e0e0e"
            d="M 494.5,29.5 C 494.631,28.7611 494.464,28.0944 494,27.5C 492.147,29.9025 490.314,32.2359 488.5,34.5C 488.062,34.5654 487.728,34.3988 487.5,34C 489.81,29.8674 492.476,26.0341 495.5,22.5C 495.833,23.5 496.167,24.5 496.5,25.5C 496.66,27.3545 495.993,28.6879 494.5,29.5 Z" />
    </g>
    <g>
        <path style="opacity:0.98" fill="#0f0f0f"
            d="M 1091.5,25.5 C 1091.14,27.371 1090.14,28.871 1088.5,30C 1084.27,33.7365 1079.94,37.2365 1075.5,40.5C 1080.2,34.7949 1085.54,29.7949 1091.5,25.5 Z" />
    </g>
    <g>
        <path style="opacity:0.618" fill="#121212"
            d="M 180.5,31.5 C 180.717,36.2303 180.383,40.8969 179.5,45.5C 178.837,43.3587 178.503,41.0254 178.5,38.5C 178.529,35.7305 179.195,33.3972 180.5,31.5 Z" />
    </g>
    <g>
        <path style="opacity:0.565" fill="#0f0f0f"
            d="M 917.5,27.5 C 917.586,28.4959 917.252,29.3292 916.5,30C 912.273,33.7365 907.94,37.2365 903.5,40.5C 907.539,35.46 912.206,31.1266 917.5,27.5 Z" />
    </g>
    <g>
        <path style="opacity:0.575" fill="#111111"
            d="M 3.5,47.5 C 3.5,42.8333 3.5,38.1667 3.5,33.5C 4.11742,33.3893 4.61742,33.056 5,32.5C 5.66667,38.5 5.66667,44.5 5,50.5C 4.76791,49.2625 4.26791,48.2625 3.5,47.5 Z" />
    </g>
    <g>
        <path style="opacity:0.194" fill="#232323"
            d="M 413.5,54.5 C 413.833,54.5 414.167,54.5 414.5,54.5C 414.719,55.675 414.386,56.675 413.5,57.5C 412.438,56.5754 412.438,55.5754 413.5,54.5 Z" />
    </g>
    <g>
        <path style="opacity:0.523" fill="#0f0f0f"
            d="M 116.5,77.5 C 116.5,71.8333 116.5,66.1667 116.5,60.5C 117.29,59.3915 117.79,58.0581 118,56.5C 118.667,64.1667 118.667,71.8333 118,79.5C 117.722,78.5842 117.222,77.9175 116.5,77.5 Z" />
    </g>
    <g>
        <path style="opacity:0.318" fill="#0f0f0f"
            d="M 480.5,47.5 C 476.765,54.6354 472.765,61.6354 468.5,68.5C 467.427,67.7494 467.26,66.7494 468,65.5C 472.001,60.1683 475.501,54.5016 478.5,48.5C 478.957,47.7025 479.624,47.3691 480.5,47.5 Z" />
    </g>
    <g>
        <path style="opacity:0.544" fill="#141414"
            d="M 638.5,65.5 C 636.721,67.3435 634.388,68.0102 631.5,67.5C 631.389,66.8826 631.056,66.3826 630.5,66C 633.146,65.5026 635.813,65.3359 638.5,65.5 Z" />
    </g>
    <g>
        <path style="opacity:0.57" fill="#141414"
            d="M 966.5,70.5 C 963.763,70.4013 961.096,70.7347 958.5,71.5C 959.148,69.4136 960.648,68.4136 963,68.5C 964.699,68.3866 965.866,69.0532 966.5,70.5 Z" />
    </g>
    <g>
        <path style="opacity:0.806" fill="#121212"
            d="M 1137.5,70.5 C 1135.1,70.448 1132.76,70.7814 1130.5,71.5C 1131.15,69.4136 1132.65,68.4136 1135,68.5C 1136.38,68.6842 1137.21,69.3509 1137.5,70.5 Z" />
    </g>
    <g>
        <path style="opacity:0.669" fill="#161616"
            d="M 337.5,70.5 C 338.434,71.5676 338.768,72.901 338.5,74.5C 337.414,74.38 336.747,73.7133 336.5,72.5C 336.543,71.5836 336.876,70.9169 337.5,70.5 Z" />
    </g>
    <g>
        <path style="opacity:0.698" fill="#141414"
            d="M 512.5,72.5 C 507.547,73.3292 502.547,73.6625 497.5,73.5C 497.389,72.8826 497.056,72.3826 496.5,72C 502.016,71.1826 507.35,71.3493 512.5,72.5 Z" />
    </g>
    <g>
        <path style="opacity:0.89" fill="#171717"
            d="M 532.5,80.5 C 532.806,77.6146 532.473,74.9479 531.5,72.5C 530.048,71.6981 528.382,71.1981 526.5,71C 529.099,70.231 531.599,70.3977 534,71.5C 534.667,75.1667 534.667,78.8333 534,82.5C 533.722,81.5842 533.222,80.9175 532.5,80.5 Z" />
    </g>
    <g>
        <path style="opacity:0.433" fill="#0d0d0d"
            d="M 954.5,73.5 C 949.017,76.3145 945.351,80.6478 943.5,86.5C 942.761,86.631 942.094,86.4643 941.5,86C 943.684,80.8115 947.018,76.4782 951.5,73C 952.749,72.2599 953.749,72.4265 954.5,73.5 Z" />
    </g>
    <g>
        <path style="opacity:0.372" fill="#0d0d0d"
            d="M 1126.5,73.5 C 1121.02,76.3145 1117.35,80.6478 1115.5,86.5C 1114.76,86.631 1114.09,86.4643 1113.5,86C 1116.23,79.9366 1120.4,75.1033 1126,71.5C 1126.46,72.0944 1126.63,72.7611 1126.5,73.5 Z" />
    </g>
    <g>
        <path style="opacity:0.876" fill="#181818"
            d="M 178.5,78.5 C 178.5,79.5 178.5,80.5 178.5,81.5C 176.559,79.9894 176.059,77.9894 177,75.5C 177.232,76.7375 177.732,77.7375 178.5,78.5 Z" />
    </g>
    <g>
        <path style="opacity:0.346" fill="#101010"
            d="M 2.5,85.5 C 2.5,81.5 2.5,77.5 2.5,73.5C 3.26791,72.7375 3.76791,71.7375 4,70.5C 4.16667,73 4.33333,75.5 4.5,78C 4.47523,80.9294 3.80856,83.4294 2.5,85.5 Z" />
    </g>
    <g>
        <path style="opacity:0.525" fill="#1b1b1b"
            d="M 339.5,78.5 C 339.5,81.1667 339.5,83.8333 339.5,86.5C 338.883,86.6107 338.383,86.944 338,87.5C 337.833,86 337.667,84.5 337.5,83C 337.569,81.0145 338.235,79.5145 339.5,78.5 Z" />
    </g>
    <g>
        <path style="opacity:0.427" fill="#161616"
            d="M 273.5,86.5 C 273.03,87.6935 272.03,88.3601 270.5,88.5C 269.274,88.4805 268.274,88.1471 267.5,87.5C 269.379,86.6586 271.379,86.3253 273.5,86.5 Z" />
    </g>
    <g>
        <path style="opacity:0.592" fill="#0f0f0f"
            d="M 533.5,88.5 C 534.805,90.3972 535.471,92.7305 535.5,95.5C 535.333,97.8333 535.167,100.167 535,102.5C 534.617,101.944 534.117,101.611 533.5,101.5C 533.5,97.1667 533.5,92.8333 533.5,88.5 Z" />
    </g>
    <g>
        <path style="opacity:0.581" fill="#141414"
            d="M 1051.5,89.5 C 1051.5,93.5 1051.5,97.5 1051.5,101.5C 1050.88,101.389 1050.38,101.056 1050,100.5C 1049.83,98.6667 1049.67,96.8333 1049.5,95C 1049.55,92.7047 1050.21,90.8714 1051.5,89.5 Z" />
    </g>
    <g>
        <path style="opacity:0.564" fill="#161616"
            d="M 339.5,95.5 C 339.5,97.8333 339.5,100.167 339.5,102.5C 338.252,101.666 337.585,100.333 337.5,98.5C 337.667,97.1667 337.833,95.8333 338,94.5C 338.383,95.056 338.883,95.3893 339.5,95.5 Z" />
    </g>
    <g>
        <path style="opacity:0.669" fill="#0d0d0d"
            d="M 177.5,89.5 C 177.206,99.8713 176.539,110.205 175.5,120.5C 174.349,115.35 174.183,110.016 175,104.5C 174.882,99.0675 175.715,94.0675 177.5,89.5 Z" />
    </g>
    <g>
        <path style="opacity:0.68" fill="#101010"
            d="M 338.5,107.5 C 338.739,109.467 338.406,111.301 337.5,113C 333.886,113.936 330.22,114.436 326.5,114.5C 326.389,113.883 326.056,113.383 325.5,113C 329.152,112.501 332.818,112.335 336.5,112.5C 336.077,110.219 336.744,108.552 338.5,107.5 Z" />
    </g>
    <g>
        <path style="opacity:0.575" fill="#1a1a1a"
            d="M 322.5,115.5 C 320.833,115.5 319.167,115.5 317.5,115.5C 319.038,112.952 320.704,112.952 322.5,115.5 Z" />
    </g>
    <g>
        <path style="opacity:0.584" fill="#0f0f0f"
            d="M 974.5,126.5 C 974.53,127.497 974.03,128.164 973,128.5C 968.087,129.961 963.254,129.795 958.5,128C 958.728,127.601 959.062,127.435 959.5,127.5C 964.562,127.726 969.562,127.392 974.5,126.5 Z" />
    </g>
    <g>
        <path style="opacity:0.62" fill="#111111"
            d="M 1128.5,126.5 C 1131.1,127.265 1133.76,127.599 1136.5,127.5C 1136.38,128.586 1135.71,129.253 1134.5,129.5C 1131.46,129.147 1129.46,128.147 1128.5,126.5 Z" />
    </g>
    <g>
        <path style="opacity:0.671" fill="#131313"
            d="M 317.5,127.5 C 317.938,127.435 318.272,127.601 318.5,128C 315.697,130.738 312.697,132.238 309.5,132.5C 312.131,130.847 314.797,129.181 317.5,127.5 Z" />
    </g>
    <g>
        <path style="opacity:0.767" fill="#171717"
            d="M 64.5,134.5 C 64.5,136.167 64.5,137.833 64.5,139.5C 63.3065,139.03 62.6399,138.03 62.5,136.5C 62.2326,134.024 62.8993,133.357 64.5,134.5 Z" />
    </g>
    <g>
        <path style="opacity:0.812" fill="#111111"
            d="M 272.5,143.5 C 275.167,143.5 277.833,143.5 280.5,143.5C 279.666,144.748 278.333,145.415 276.5,145.5C 274.667,145.415 273.334,144.748 272.5,143.5 Z" />
    </g>
    <g>
        <path style="opacity:0.664" fill="#0f0f0f"
            d="M 596.5,142.5 C 596.5,147.167 596.5,151.833 596.5,156.5C 595.883,156.611 595.383,156.944 595,157.5C 594.333,152.167 594.333,146.833 595,141.5C 595.383,142.056 595.883,142.389 596.5,142.5 Z" />
    </g>
    <g>
        <path style="opacity:0.729" fill="#121212"
            d="M 63.5,144.5 C 63.815,148.371 63.4816,152.038 62.5,155.5C 61.8389,153.866 61.5056,152.033 61.5,150C 61.5465,147.705 62.2132,145.871 63.5,144.5 Z" />
    </g>
    <g>
        <path style="opacity:0.544" fill="#161616"
            d="M 174.5,146.5 C 174.5,149.833 174.5,153.167 174.5,156.5C 173.223,155.306 172.556,153.64 172.5,151.5C 172.556,149.36 173.223,147.694 174.5,146.5 Z" />
    </g>
    <g>
        <path style="opacity:0.533" fill="#0d0d0d"
            d="M 911.5,163.5 C 905.744,159.08 901.078,153.747 897.5,147.5C 897.435,147.062 897.601,146.728 898,146.5C 902.124,152.958 907.29,158.458 913.5,163C 912.906,163.464 912.239,163.631 911.5,163.5 Z" />
    </g>
    <g>
        <path style="opacity:0.536" fill="#0e0e0e"
            d="M 1083.5,163.5 C 1077.74,159.08 1073.08,153.747 1069.5,147.5C 1069.43,147.062 1069.6,146.728 1070,146.5C 1074.12,152.958 1079.29,158.458 1085.5,163C 1084.91,163.464 1084.24,163.631 1083.5,163.5 Z" />
    </g>
    <g>
        <path style="opacity:0.541" fill="#0f0f0f"
            d="M 536.5,163.5 C 537.809,165.571 538.475,168.071 538.5,171C 538.333,173.5 538.167,176 538,178.5C 537.722,177.584 537.222,176.918 536.5,176.5C 536.5,172.167 536.5,167.833 536.5,163.5 Z" />
    </g>
    <g>
        <path style="opacity:0.552" fill="#151515"
            d="M 975.5,184.5 C 969.833,184.5 964.167,184.5 958.5,184.5C 960.915,183.186 963.748,182.519 967,182.5C 970.252,182.519 973.085,183.186 975.5,184.5 Z" />
    </g>
    <g>
        <path style="opacity:0.536" fill="#141414"
            d="M 1147.5,184.5 C 1141.83,184.5 1136.17,184.5 1130.5,184.5C 1132.92,183.186 1135.75,182.519 1139,182.5C 1142.25,182.519 1145.08,183.186 1147.5,184.5 Z" />
    </g>
    <g>
        <path style="opacity:0.682" fill="#1c1c1c"
            d="M 172.5,185.5 C 171.365,187.213 169.698,187.88 167.5,187.5C 167.389,186.883 167.056,186.383 166.5,186C 168.473,185.505 170.473,185.338 172.5,185.5 Z" />
    </g>
    <g>
        <path style="opacity:0.953" fill="#1d1d1d"
            d="M 593.5,191.5 C 592.5,191.5 591.5,191.5 590.5,191.5C 591.5,188.833 592.5,188.833 593.5,191.5 Z" />
    </g>
    <g>
        <path style="opacity:0.685" fill="#141414"
            d="M 740.5,192.5 C 737.167,192.5 733.833,192.5 730.5,192.5C 732.048,191.206 734.048,190.539 736.5,190.5C 738.5,190.667 740.5,190.833 742.5,191C 741.584,191.278 740.918,191.778 740.5,192.5 Z" />
    </g>
    <g>
        <path style="opacity:0.588" fill="#161616"
            d="M 670.5,190.5 C 673.684,191.662 676.684,192.996 679.5,194.5C 676.813,194.664 674.146,194.497 671.5,194C 670.663,192.989 670.33,191.822 670.5,190.5 Z" />
    </g>
    <g>
        <path style="opacity:0.809" fill="#171717"
            d="M 60.5,193.5 C 60.3893,194.117 60.056,194.617 59.5,195C 40.5029,195.5 21.5029,195.667 2.5,195.5C 21.4711,193.512 40.8045,192.846 60.5,193.5 Z" />
    </g>
    <g>
        <path style="opacity:0.662" fill="#1a1a1a"
            d="M 854.5,195.5 C 853.737,196.268 852.737,196.768 851.5,197C 845.509,197.499 839.509,197.666 833.5,197.5C 832.391,196.71 831.058,196.21 829.5,196C 837.827,195.5 846.16,195.334 854.5,195.5 Z" />
    </g>
    <g>
        <path style="opacity:0.601" fill="#141414"
            d="M 807.5,198.5 C 798.5,198.5 789.5,198.5 780.5,198.5C 780.611,197.883 780.944,197.383 781.5,197C 790.5,196.333 799.5,196.333 808.5,197C 807.944,197.383 807.611,197.883 807.5,198.5 Z" />
    </g>
</svg>